<svg width="30" height="30" viewBox="0 0 30 30" fill="none" xmlns="http://www.w3.org/2000/svg">
<path d="M23.6869 14.3494C23.6869 12.7594 23.115 11.6588 22.6256 10.8019L22.4756 10.5582C21.8813 9.6019 21.3619 8.7619 21.3619 7.78315C21.3619 6.6019 22.2581 5.4994 23.5219 5.4994C23.5594 5.4994 23.5956 5.50128 23.6306 5.50503L23.6887 5.51065C21.3189 3.33436 18.2175 2.12836 15 2.1319C12.8677 2.13165 10.7687 2.66152 8.89199 3.67385C7.01527 4.68618 5.41967 6.1492 4.24875 7.93128C4.54875 7.94065 4.83562 7.94815 5.0775 7.94815C6.42187 7.94815 8.505 7.78503 8.505 7.78503C9.19875 7.74378 9.28125 8.7619 8.5875 8.8444C8.5875 8.8444 7.89187 8.92691 7.11562 8.96628L11.8031 22.905L14.6156 14.4563L12.6094 8.96441C11.9175 8.92316 11.2612 8.84253 11.2612 8.84253C10.5675 8.80128 10.65 7.74003 11.3419 7.78128C11.3419 7.78128 13.4681 7.9444 14.7319 7.9444C16.0781 7.9444 18.1631 7.78128 18.1631 7.78128C18.8569 7.74003 18.9375 8.76003 18.2437 8.84253C18.2437 8.84253 17.5462 8.92316 16.7719 8.96441L21.4219 22.7963L22.7044 18.5082L22.8056 18.1838C23.3119 16.5713 23.685 15.3807 23.685 14.3475L23.6869 14.3494ZM2.13187 15C2.13086 17.4166 2.81065 19.7846 4.09335 21.8327C5.37604 23.8807 7.20975 25.526 9.38438 26.58L3.24375 9.76128C2.50643 11.4091 2.12744 13.1948 2.13187 15Z" fill="#207499"/>
<path d="M11.3644 27.3431L15.2269 16.125L19.1812 26.9625C19.2062 27.025 19.2369 27.0837 19.2731 27.1387C16.724 28.0373 13.9565 28.1088 11.3644 27.3431ZM26.2894 8.82562C26.3469 9.23562 26.3762 9.67687 26.3775 10.1494C26.3775 11.4544 26.1337 12.9225 25.3987 14.7581L21.4687 26.1206C24.3688 24.4357 26.496 21.6846 27.3969 18.4538C28.2978 15.223 27.901 11.7681 26.2912 8.82562H26.2894Z" fill="#207499"/>
<path fill-rule="evenodd" clip-rule="evenodd" d="M0 15C0 6.72938 6.72938 0 15 0C23.2706 0 30 6.72938 30 15C30 23.2706 23.2687 30 15 30C6.73125 30 0 23.2706 0 15ZM0.688125 15C0.688125 22.8919 7.10812 29.3119 15 29.3119C22.8919 29.3119 29.31 22.8919 29.31 15C29.31 7.10625 22.89 0.688125 15 0.688125C7.10625 0.688125 0.688125 7.10625 0.688125 15Z" fill="#207499"/>
</svg>
