<svg width="34" height="30" viewBox="0 0 34 30" fill="none" xmlns="http://www.w3.org/2000/svg">
<g clip-path="url(#clip0_6_108)">
<path d="M27.698 9.71366C27.3396 9.59067 26.978 9.47673 26.6138 9.37195C26.675 9.12195 26.7313 8.87498 26.7813 8.63235C27.6021 4.648 27.0655 1.43813 25.2328 0.381293C23.4755 -0.631865 20.6017 0.424582 17.6993 2.9505C17.4133 3.19989 17.1336 3.45646 16.8605 3.71998C16.6777 3.54475 16.4917 3.37292 16.3025 3.20458C13.2607 0.503793 10.2117 -0.634497 8.38093 0.425372C6.62527 1.44169 6.1054 4.45919 6.84435 8.23524C6.91786 8.60922 7.00087 8.98127 7.09329 9.35103C6.66172 9.47366 6.24527 9.60419 5.84671 9.74313C2.2804 10.9866 0.00289917 12.9351 0.00289917 14.9563C0.00289917 17.0438 2.4479 19.1376 6.16237 20.4072C6.46351 20.5097 6.76716 20.6047 7.07303 20.6921C6.97369 21.0903 6.8855 21.4913 6.80856 21.8945C6.10408 25.605 6.65421 28.5512 8.40514 29.561C10.2136 30.6039 13.2488 29.5321 16.2042 26.9485C16.4439 26.7385 16.6782 26.5225 16.9071 26.3008C17.2028 26.5861 17.5065 26.8631 17.8176 27.1316C20.6805 29.595 23.5079 30.5897 25.2571 29.5771C27.0638 28.5312 27.6511 25.3662 26.8887 21.5155C26.8286 21.2138 26.7613 20.9137 26.6867 20.6152C26.8999 20.5521 27.1091 20.4871 27.313 20.4195C31.1746 19.1401 33.6871 17.0717 33.6871 14.9563C33.6871 12.9277 31.3361 10.966 27.698 9.71366ZM26.8605 19.0537C26.6763 19.1146 26.4874 19.1734 26.2947 19.2306C25.8684 17.881 25.2932 16.446 24.5891 14.9633C25.2609 13.5159 25.8141 12.0992 26.2284 10.7584C26.573 10.8581 26.9074 10.9633 27.2297 11.0742C30.3468 12.1473 32.2482 13.7338 32.2482 14.9563C32.2482 16.2584 30.1947 17.9488 26.8605 19.0537ZM25.4771 21.795C25.8142 23.4976 25.8622 25.0371 25.639 26.2406C25.4384 27.3221 25.035 28.043 24.5361 28.3318C23.4746 28.9463 21.2045 28.1476 18.7562 26.0408C18.4668 25.7912 18.1843 25.5337 17.9092 25.2684C18.8584 24.2304 19.807 23.0237 20.7328 21.6834C22.3612 21.5389 23.8996 21.3026 25.2947 20.9801C25.3619 21.2503 25.4228 21.522 25.4771 21.795ZM11.4866 28.2256C10.4495 28.5918 9.62343 28.6023 9.12408 28.3145C8.06158 27.7017 7.61987 25.336 8.22237 22.1629C8.29399 21.7879 8.376 21.415 8.46829 21.0446C9.84803 21.3498 11.3753 21.5693 13.0075 21.7017C13.9396 23.0131 14.9155 24.2185 15.8991 25.2741C15.6901 25.4763 15.4761 25.6734 15.2574 25.8651C13.9504 27.0075 12.6408 27.818 11.4866 28.2256ZM6.6279 19.0456C4.9854 18.4842 3.62895 17.7546 2.69922 16.9584C1.86369 16.243 1.44198 15.5326 1.44198 14.9563C1.44198 13.7297 3.27053 12.1652 6.3204 11.102C6.69053 10.973 7.0779 10.8513 7.47987 10.7371C7.90145 12.1081 8.45435 13.5417 9.12158 14.9913C8.44566 16.4623 7.88487 17.9188 7.45922 19.306C7.18002 19.2261 6.90283 19.1392 6.6279 19.0456ZM8.25658 7.95879C7.62356 4.72366 8.04395 2.28327 9.10198 1.67077C10.2288 1.0184 12.7207 1.94853 15.3471 4.28063C15.5184 4.43305 15.6869 4.58856 15.8525 4.74708C14.8738 5.798 13.9068 6.99445 12.983 8.29814C11.3988 8.44498 9.88237 8.68077 8.48816 8.99669C8.40226 8.65277 8.32505 8.3066 8.25658 7.95879ZM22.7865 11.5468C22.4571 10.978 22.1156 10.4163 21.7621 9.86221C22.8368 9.99814 23.8666 10.1785 24.8336 10.3991C24.5433 11.3296 24.1815 12.3023 23.7555 13.2997C23.4442 12.709 23.1211 12.1246 22.7865 11.5468ZM16.8612 5.77564C17.5249 6.49471 18.1896 7.29748 18.8434 8.16853C17.5171 8.10589 16.1886 8.10563 14.8622 8.16774C15.5167 7.30471 16.1871 6.503 16.8612 5.77564ZM10.8979 11.5566C10.5674 12.1297 10.2504 12.7105 9.94698 13.2984C9.52803 12.3046 9.16948 11.3273 8.87672 10.3837C9.83777 10.1687 10.8626 9.99287 11.9305 9.85945C11.5731 10.4169 11.2288 10.9829 10.8979 11.5566ZM11.9612 20.1555C10.8579 20.0323 9.81764 19.8656 8.85685 19.6564C9.15422 18.6959 9.52066 17.6979 9.94869 16.6827C10.2533 17.2711 10.5717 17.8522 10.9036 18.4256C11.2449 19.0151 11.5983 19.5925 11.9612 20.1555ZM16.9009 24.2384C16.2188 23.5026 15.5386 22.6885 14.8742 21.813C15.5192 21.8383 16.1767 21.8512 16.845 21.8512C17.5316 21.8512 18.2103 21.8358 18.8783 21.806C18.2224 22.6973 17.5601 23.5126 16.9009 24.2384ZM23.7691 16.6309C24.2193 17.6572 24.5988 18.65 24.9001 19.5941C23.9236 19.817 22.8691 19.9964 21.758 20.1297C22.1141 19.5653 22.4588 18.9939 22.7921 18.4158C23.131 17.8281 23.4567 17.233 23.7691 16.6309ZM21.5457 17.6968C21.0354 18.5832 20.4965 19.4527 19.9297 20.3041C18.9031 20.3768 17.8742 20.4129 16.845 20.4123C15.7967 20.4123 14.7771 20.3797 13.7953 20.316C13.2137 19.4667 12.6645 18.5956 12.1488 17.7047C11.6356 16.8185 11.1563 15.9132 10.7117 14.9906C11.1551 14.0679 11.6331 13.1621 12.1446 12.2752L12.1445 12.2754C12.6558 11.3883 13.2006 10.521 13.7778 9.67524C14.7795 9.59945 15.8067 9.55998 16.8449 9.55998C17.8878 9.55998 18.9165 9.59985 19.9179 9.67616C20.4892 10.5206 21.0306 11.385 21.5409 12.2676C22.0541 13.1525 22.5384 14.0539 22.993 14.9702C22.5431 15.896 22.0603 16.8054 21.5457 17.6968ZM24.5141 1.62787C25.642 2.2784 26.0807 4.90169 25.372 8.34182C25.3267 8.56129 25.2759 8.78485 25.2207 9.01156C23.823 8.68892 22.3055 8.44906 20.7167 8.29998C19.7912 6.98195 18.8321 5.78366 17.8693 4.74629C18.1217 4.50307 18.38 4.26616 18.6441 4.03577C21.1309 1.87169 23.4551 1.01721 24.5141 1.62787ZM16.845 11.9484C18.5062 11.9484 19.8529 13.2951 19.8529 14.9563C19.8529 16.6175 18.5062 17.9642 16.845 17.9642C15.1838 17.9642 13.8371 16.6175 13.8371 14.9563C13.8371 13.2951 15.1838 11.9484 16.845 11.9484Z" fill="#00D8FF"/>
</g>
<defs>
<clipPath id="clip0_6_108">
<rect width="33.69" height="30" fill="white"/>
</clipPath>
</defs>
</svg>
