<svg width="31" height="30" viewBox="0 0 31 30" fill="none" xmlns="http://www.w3.org/2000/svg">
<g clip-path="url(#clip0_6_53)">
<path d="M213.5 0H42.5C19.0279 0 0 19.0279 0 42.5V207.1C0 230.572 19.0279 249.6 42.5 249.6H213.5C236.972 249.6 256 230.572 256 207.1V42.5C256 19.0279 236.972 0 213.5 0Z" fill="#470137"/>
<path d="M25.62 0H5.1C2.28335 0 0 2.28335 0 5.1V24.852C0 27.6687 2.28335 29.952 5.1 29.952H25.62C28.4367 29.952 30.72 27.6687 30.72 24.852V5.1C30.72 2.28335 28.4367 0 25.62 0Z" fill="#470137"/>
<path d="M16.1494 7.87679L12.3162 14.2036L16.4172 20.9218C16.4436 20.9688 16.4509 21.024 16.4378 21.0763C16.4315 21.0986 16.4178 21.1042 16.3968 21.105L16.3735 21.1046L16.3452 21.1039C16.3298 21.1039 16.3127 21.1046 16.2936 21.1078H13.3368L13.2787 21.1068C13.1194 21.1026 13.0045 21.0798 12.9346 20.9629C12.661 20.4299 12.3862 19.8976 12.1102 19.3658C11.8633 18.8916 11.6096 18.4208 11.3494 17.9538L11.2344 17.7481C10.9231 17.1948 10.6174 16.6384 10.3174 16.0789H10.2967C10.0196 16.6325 9.73453 17.1821 9.44148 17.7275C9.14592 18.2771 8.85396 18.8233 8.5656 19.3658C8.27707 19.9088 7.98169 20.4481 7.67952 20.9836C7.63092 21.0928 7.55016 21.1156 7.43772 21.1193L7.39092 21.12H4.56768L4.55544 21.1204L4.51512 21.124C4.49268 21.1253 4.47924 21.1205 4.47492 21.0866C4.46718 21.0364 4.4782 20.985 4.50588 20.9424L8.48316 14.4096L4.60884 7.85639C4.56768 7.80167 4.56084 7.75703 4.5882 7.72247C4.60341 7.70486 4.6225 7.69104 4.64397 7.68208C4.66545 7.67313 4.68871 7.66929 4.71192 7.67087H7.6176C7.68097 7.6674 7.74431 7.67797 7.80312 7.70183C7.85232 7.72979 7.89468 7.76855 7.92672 7.81523C8.17404 8.36483 8.44884 8.91443 8.75112 9.46379C9.05105 10.0097 9.35675 10.5524 9.66816 11.0918C9.9748 11.6229 10.2601 12.166 10.5234 12.7199H10.544C10.8139 12.1662 11.0921 11.6166 11.3786 11.0713C11.66 10.5355 11.9486 9.99611 12.2441 9.45347C12.5358 8.91779 12.8209 8.37855 13.0993 7.83587C13.1152 7.78499 13.1435 7.73891 13.1818 7.70183C13.2327 7.67606 13.2899 7.66532 13.3466 7.67087H16.0463C16.0711 7.66468 16.0973 7.66672 16.1208 7.67668C16.1444 7.68664 16.1641 7.70398 16.1769 7.7261C16.1898 7.74821 16.1951 7.7739 16.1921 7.7993C16.1891 7.8247 16.1779 7.84844 16.1603 7.86695L16.1494 7.87679ZM22.2058 21.3736L22.0637 21.3751C21.1151 21.3896 20.1753 21.1925 19.3124 20.7982C18.5087 20.4261 17.8368 19.8189 17.3856 19.0567C16.9307 18.3012 16.6972 17.3597 16.6854 16.2325L16.6849 16.1407C16.6772 15.1949 16.9189 14.2637 17.3857 13.4411C17.8529 12.6268 18.534 11.956 19.3552 11.5012L19.4258 11.4628C20.3186 10.9681 21.3972 10.7208 22.6613 10.7208L22.7165 10.7214L22.7796 10.7234L22.8504 10.7266L22.9291 10.7311L23.0614 10.7405L23.2111 10.7525L23.3207 10.7621V6.70223C23.3207 6.60623 23.362 6.55799 23.4443 6.55799H26.041C26.0577 6.55558 26.0749 6.55712 26.091 6.56248C26.1071 6.56784 26.1217 6.57687 26.1337 6.58887C26.1457 6.60086 26.1547 6.61549 26.1601 6.63158C26.1654 6.64768 26.167 6.6648 26.1646 6.68159V18.861C26.1646 19.0655 26.1725 19.2858 26.1883 19.5215L26.2267 20.0561L26.2471 20.3653C26.2497 20.4081 26.2392 20.4507 26.2171 20.4875C26.1951 20.5243 26.1624 20.5536 26.1234 20.5715C25.4535 20.8508 24.7558 21.058 24.042 21.1896C23.436 21.3014 22.8219 21.363 22.2058 21.3736ZM23.3207 18.8197V13.1938C23.2093 13.1636 23.0956 13.1429 22.9807 13.132C22.8403 13.1178 22.6993 13.1109 22.5582 13.1113C22.0581 13.1064 21.5639 13.2193 21.1157 13.4411C20.6791 13.6581 20.3063 13.9848 20.0338 14.3891C19.7617 14.787 19.621 15.3066 19.6117 15.9479L19.6112 16.0171C19.6012 16.4663 19.6746 16.9135 19.8276 17.3359C19.9522 17.6764 20.1491 17.9858 20.4048 18.2428C20.6495 18.4792 20.9458 18.6555 21.2702 18.7579C21.613 18.8689 21.9712 18.9246 22.3315 18.9229C22.5238 18.9229 22.7023 18.916 22.8673 18.9022C22.9989 18.8923 23.1294 18.8706 23.2571 18.8374L23.3207 18.8197Z" fill="#FF61F6"/>
</g>
<defs>
<clipPath id="clip0_6_53">
<rect width="30.72" height="30" fill="white"/>
</clipPath>
</defs>
</svg>
