<svg width="30" height="30" viewBox="0 0 30 30" fill="none" xmlns="http://www.w3.org/2000/svg">
<path d="M15 28.125C14.6459 28.1251 14.298 28.032 13.9913 27.855L10.7813 25.9547C10.3022 25.6866 10.5356 25.5919 10.6941 25.5366C11.2036 25.3792 11.6914 25.1587 12.1463 24.8803C12.1843 24.8627 12.2263 24.8551 12.2681 24.8582C12.3099 24.8613 12.3503 24.8751 12.3853 24.8981L14.8519 26.3634C14.8978 26.3877 14.949 26.4004 15.0009 26.4004C15.0529 26.4004 15.1041 26.3877 15.15 26.3634L24.7687 20.8116C24.8138 20.7846 24.851 20.7464 24.8768 20.7007C24.9026 20.655 24.9161 20.6034 24.9159 20.5509V9.44531C24.916 9.39201 24.9023 9.3396 24.8762 9.29313C24.8501 9.24666 24.8124 9.2077 24.7669 9.18L15.1481 3.63281C15.1028 3.60727 15.0516 3.59385 14.9995 3.59385C14.9475 3.59385 14.8963 3.60727 14.8509 3.63281L5.23781 9.18188C5.19196 9.20899 5.15388 9.2475 5.12728 9.29365C5.10067 9.3398 5.08643 9.39204 5.08594 9.44531V20.5463C5.08607 20.5986 5.10012 20.65 5.12664 20.6951C5.15316 20.7403 5.19121 20.7775 5.23688 20.8031L7.875 22.3256C9.30469 23.04 10.1803 22.1981 10.1803 21.3525V10.3922C10.1803 10.3176 10.2099 10.2461 10.2627 10.1933C10.3154 10.1406 10.387 10.1109 10.4616 10.1109H11.6803C11.7549 10.1109 11.8264 10.1406 11.8792 10.1933C11.9319 10.2461 11.9616 10.3176 11.9616 10.3922V21.3534C11.9616 23.2613 10.9228 24.3534 9.11344 24.3534C8.33285 24.367 7.56451 24.1583 6.89813 23.7516L4.36969 22.3013C4.06274 22.1225 3.80805 21.8664 3.63104 21.5584C3.45403 21.2505 3.3609 20.9015 3.36094 20.5463V9.44531C3.36003 9.08956 3.45276 8.73983 3.62984 8.43128C3.80691 8.12272 4.06207 7.8662 4.36969 7.6875L13.9894 2.13375C14.2992 1.96422 14.6468 1.87537 15 1.87537C15.3532 1.87537 15.7008 1.96422 16.0106 2.13375L25.6294 7.6875C25.9363 7.8659 26.191 8.12168 26.3682 8.4293C26.5454 8.73692 26.6388 9.08563 26.6391 9.44063V20.5463C26.6385 20.9015 26.5451 21.2503 26.3679 21.5582C26.1908 21.8661 25.9362 22.1223 25.6294 22.3013L16.0106 27.855C15.7033 28.0323 15.3548 28.1254 15 28.125Z" fill="#83CD29"/>
<path d="M13.1756 16.8309C13.1756 16.7563 13.2053 16.6848 13.258 16.6321C13.3107 16.5793 13.3823 16.5497 13.4569 16.5497H14.7009C14.7674 16.5499 14.8317 16.5736 14.8823 16.6167C14.9329 16.6598 14.9666 16.7194 14.9775 16.785C15.165 18.0515 15.7275 18.69 18.2709 18.69C20.2969 18.69 21.1603 18.2315 21.1603 17.1562C21.1603 16.5365 20.9156 16.0762 17.7666 15.7678C15.1341 15.5072 13.5066 14.9241 13.5066 12.8203C13.5066 10.8797 15.1425 9.72186 17.8847 9.72186C20.9663 9.72186 22.4916 10.7916 22.6847 13.0865C22.6876 13.1249 22.6827 13.1634 22.6702 13.1997C22.6577 13.236 22.6379 13.2694 22.6119 13.2978C22.586 13.3262 22.5546 13.3489 22.5195 13.3647C22.4845 13.3804 22.4466 13.3888 22.4081 13.3894H21.1556C21.0928 13.3885 21.0321 13.3666 20.9831 13.3272C20.9342 13.2877 20.8999 13.2331 20.8856 13.1719C20.5866 11.8397 19.8544 11.4141 17.8856 11.4141C15.6731 11.4141 15.4163 12.1847 15.4163 12.7622C15.4163 13.4615 15.72 13.6659 18.7069 14.0606C21.6628 14.4516 23.0672 15.0047 23.0672 17.0822C23.0672 19.1784 21.3197 20.3784 18.2719 20.3784C14.0578 20.384 13.1756 18.4519 13.1756 16.8309Z" fill="#83CD29"/>
</svg>
