<svg width="40" height="40" viewBox="0 0 40 40" fill="none" xmlns="http://www.w3.org/2000/svg">
<path fill-rule="evenodd" clip-rule="evenodd" d="M11.3217 11.3217C11.6342 11.0092 12.058 10.8337 12.5 10.8337C12.9419 10.8337 13.3658 11.0092 13.6783 11.3217L20 17.6433L26.3217 11.3217C26.4754 11.1625 26.6593 11.0355 26.8626 10.9482C27.066 10.8608 27.2847 10.8149 27.506 10.8129C27.7273 10.811 27.9468 10.8532 28.1516 10.937C28.3564 11.0208 28.5425 11.1445 28.699 11.301C28.8555 11.4575 28.9792 11.6436 29.063 11.8484C29.1468 12.0533 29.189 12.2727 29.1871 12.494C29.1852 12.7153 29.1392 12.934 29.0518 13.1374C28.9645 13.3407 28.8375 13.5246 28.6783 13.6783L22.3567 20L28.6783 26.3217C28.9819 26.636 29.1499 27.057 29.1461 27.494C29.1423 27.931 28.967 28.349 28.658 28.658C28.349 28.9671 27.931 29.1423 27.494 29.1461C27.057 29.1499 26.636 28.9819 26.3217 28.6783L20 22.3567L13.6783 28.6783C13.364 28.9819 12.943 29.1499 12.506 29.1461C12.069 29.1423 11.651 28.9671 11.342 28.658C11.0329 28.349 10.8577 27.931 10.8539 27.494C10.8501 27.057 11.0181 26.636 11.3217 26.3217L17.6433 20L11.3217 13.6783C11.0092 13.3658 10.8337 12.942 10.8337 12.5C10.8337 12.0581 11.0092 11.6342 11.3217 11.3217Z" fill="white"/>
</svg>
