<svg width="24" height="24" viewBox="0 0 24 24" fill="none" xmlns="http://www.w3.org/2000/svg">
<path d="M12 1.5C6.195 1.5 1.5 6.315 1.5 12.27C1.5 16.98 4.44 20.985 8.535 22.455C9.09 22.59 9 22.2 9 21.915V20.04C5.82 20.43 5.685 18.255 5.475 17.895C5.04 17.145 4.02 16.95 4.335 16.59C5.055 16.2 5.805 16.68 6.66 17.985C7.275 18.93 8.49 18.765 9.105 18.615C9.24 18.045 9.525 17.55 9.915 17.145C6.615 16.545 5.235 14.475 5.235 12.015C5.235 10.815 5.61 9.72 6.375 8.835C5.895 7.38 6.42 6.135 6.495 5.94C7.86 5.82 9.27 6.945 9.39 7.035C10.17 6.825 11.055 6.705 12.045 6.705C13.035 6.705 13.92 6.825 14.715 7.035C14.985 6.825 16.29 5.865 17.565 5.97C17.64 6.15 18.15 7.38 17.7 8.82C18.465 9.705 18.84 10.815 18.84 12.015C18.84 14.475 17.46 16.545 14.145 17.145C14.4306 17.432 14.6551 17.7739 14.805 18.15C14.955 18.525 15.03 18.93 15.03 19.335V22.05C15.045 22.26 15.03 22.485 15.375 22.485C19.53 21.045 22.515 17.01 22.515 12.27C22.515 6.315 17.82 1.485 12.015 1.485L12 1.5Z" fill="white"/>
</svg>
