<svg width="39" height="39" viewBox="0 0 39 39" fill="none" xmlns="http://www.w3.org/2000/svg">
<g clip-path="url(#clip0_130_175)">
<path d="M9.68829 17.4912C11.8773 17.074 13.3137 14.9612 12.8965 12.7722C12.4793 10.5831 10.3666 9.14677 8.17753 9.56396C5.98849 9.98114 4.55212 12.0939 4.96931 14.2829C5.38649 16.472 7.49925 17.9083 9.68829 17.4912Z" stroke="#B4B4B4" stroke-width="2" stroke-linecap="round" stroke-linejoin="round"/>
<path d="M9.68828 17.4912L12.7098 33.3456M22.9003 14.9732L18.1813 11.765L21.3895 7.04603" stroke="#B4B4B4" stroke-width="2" stroke-linecap="round" stroke-linejoin="round"/>
<path d="M18.1813 11.7651L24.7873 10.5062C25.4881 10.3726 26.2133 10.5229 26.8033 10.924C27.3932 11.3251 27.7997 11.9442 27.9333 12.645L28.6887 16.6086M29.6958 21.8934L31.2066 29.8206M34.4148 25.1016L26.4876 26.6124" stroke="#B4B4B4" stroke-width="2" stroke-linecap="round" stroke-linejoin="round"/>
</g>
<defs>
<clipPath id="clip0_130_175">
<rect width="32.2795" height="32.2795" fill="white" transform="translate(0.816162 6.85938) rotate(-10.79)"/>
</clipPath>
</defs>
</svg>
