<svg width="31" height="30" viewBox="0 0 31 30" fill="none" xmlns="http://www.w3.org/2000/svg">
<g clip-path="url(#clip0_6_43)">
<path d="M25.62 0H5.1C2.28335 0 0 2.28335 0 5.1V24.852C0 27.6687 2.28335 29.952 5.1 29.952H25.62C28.4367 29.952 30.72 27.6687 30.72 24.852V5.1C30.72 2.28335 28.4367 0 25.62 0Z" fill="#330000"/>
<path d="M14.8865 17.9748H10.1261L9.15744 20.9836C9.14426 21.0384 9.11235 21.087 9.0672 21.1209C9.02205 21.1547 8.9665 21.1718 8.91012 21.1691H6.49896C6.36156 21.1691 6.31344 21.0935 6.35472 20.9423L10.4764 9.07211C10.5175 8.94851 10.5588 8.80775 10.6 8.64971C10.654 8.37467 10.6816 8.09531 10.6824 7.81511C10.6796 7.79551 10.6814 7.77553 10.6876 7.75674C10.6939 7.73796 10.7044 7.72089 10.7184 7.70688C10.7324 7.69287 10.7495 7.68232 10.7683 7.67605C10.7871 7.66978 10.807 7.66796 10.8266 7.67075H14.1034C14.1994 7.67075 14.2543 7.70519 14.2682 7.77395L18.9462 20.9629C18.9875 21.1004 18.9462 21.1692 18.8226 21.1691H16.1435C16.0975 21.1742 16.0512 21.1624 16.0133 21.1358C15.9753 21.1093 15.9484 21.0698 15.9374 21.0248L14.8865 17.9748ZM10.8679 15.3782H14.124L14.0776 15.225L14.003 14.9824L13.9499 14.812L13.865 14.5436L13.6847 13.9788L13.526 13.478L13.1141 12.1736C13.0115 11.8494 12.9131 11.5238 12.8189 11.1971L12.7435 10.9319L12.6554 10.6183L12.521 10.1323L12.4958 10.0408H12.4753C12.3722 10.5354 12.2466 11.0251 12.099 11.5084L11.7932 12.4919L11.625 13.0352L11.4552 13.5853C11.4245 13.6847 11.394 13.783 11.3634 13.88L11.2722 14.1678L11.1815 14.4488L11.0912 14.7229L11.0015 14.9902C10.9717 15.0781 10.942 15.1649 10.9123 15.2506L10.8679 15.3782ZM21.728 9.85523C21.5179 9.86367 21.3083 9.82765 21.113 9.74953C20.9176 9.67141 20.741 9.55294 20.5946 9.40187C20.4487 9.24425 20.3353 9.05933 20.261 8.85774C20.1867 8.65614 20.153 8.44186 20.1618 8.22719C20.1543 8.01469 20.1918 7.80299 20.2717 7.60594C20.3516 7.40888 20.4721 7.23089 20.6255 7.08359C20.9213 6.79963 21.3152 6.64072 21.7253 6.63995L21.7692 6.64043C22.2638 6.64043 22.652 6.78803 22.9337 7.08347C23.0758 7.23698 23.1863 7.41701 23.2588 7.61326C23.3313 7.80952 23.3643 8.01814 23.3561 8.22719C23.3647 8.44271 23.33 8.65776 23.2538 8.85958C23.1777 9.06139 23.0618 9.24585 22.913 9.40199C22.7628 9.55007 22.5845 9.6666 22.3885 9.7447C22.1926 9.82281 21.983 9.86092 21.7721 9.85679L21.728 9.85523ZM20.306 20.9629V11.1124C20.306 10.9888 20.3608 10.9268 20.4709 10.9268H23.0058C23.1156 10.9268 23.1706 10.9886 23.1707 11.1124V20.9629C23.1707 21.1004 23.1157 21.1692 23.0058 21.1691H20.4916C20.3744 21.1691 20.3128 21.1074 20.3066 20.984L20.306 20.9629Z" fill="#FF9A00"/>
</g>
<defs>
<clipPath id="clip0_6_43">
<rect width="30.72" height="30" fill="white"/>
</clipPath>
</defs>
</svg>
