<svg width="30" height="30" viewBox="0 0 30 30" fill="none" xmlns="http://www.w3.org/2000/svg">
<g clip-path="url(#clip0_29_600)">
<path fill-rule="evenodd" clip-rule="evenodd" d="M22.5 3.75C23.4946 3.75 24.4484 4.14509 25.1517 4.84835C25.8549 5.55161 26.25 6.50544 26.25 7.5V22.5C26.25 23.4946 25.8549 24.4484 25.1517 25.1517C24.4484 25.8549 23.4946 26.25 22.5 26.25H7.5C6.50544 26.25 5.55161 25.8549 4.84835 25.1517C4.14509 24.4484 3.75 23.4946 3.75 22.5V7.5C3.75 6.50544 4.14509 5.55161 4.84835 4.84835C5.55161 4.14509 6.50544 3.75 7.5 3.75H22.5ZM10 12.5C9.66848 12.5 9.35054 12.6317 9.11612 12.8661C8.8817 13.1005 8.75 13.4185 8.75 13.75V20C8.75 20.3315 8.8817 20.6495 9.11612 20.8839C9.35054 21.1183 9.66848 21.25 10 21.25C10.3315 21.25 10.6495 21.1183 10.8839 20.8839C11.1183 20.6495 11.25 20.3315 11.25 20V13.75C11.25 13.4185 11.1183 13.1005 10.8839 12.8661C10.6495 12.6317 10.3315 12.5 10 12.5ZM13.75 11.25C13.4185 11.25 13.1005 11.3817 12.8661 11.6161C12.6317 11.8505 12.5 12.1685 12.5 12.5V20C12.5 20.3315 12.6317 20.6495 12.8661 20.8839C13.1005 21.1183 13.4185 21.25 13.75 21.25C14.0815 21.25 14.3995 21.1183 14.6339 20.8839C14.8683 20.6495 15 20.3315 15 20V15.425C15.3813 14.995 16.025 14.49 16.7412 14.1838C17.1575 14.0063 17.7837 13.9338 18.2188 14.0712C18.3631 14.1079 18.4916 14.1903 18.585 14.3062C18.65 14.3937 18.75 14.5887 18.75 15V20C18.75 20.3315 18.8817 20.6495 19.1161 20.8839C19.3505 21.1183 19.6685 21.25 20 21.25C20.3315 21.25 20.6495 21.1183 20.8839 20.8839C21.1183 20.6495 21.25 20.3315 21.25 20V15C21.25 14.1625 21.0375 13.4175 20.595 12.82C20.1878 12.2782 19.6179 11.8809 18.9688 11.6862C17.8413 11.3325 16.5925 11.5287 15.7588 11.8862C15.4916 12.0006 15.2316 12.1308 14.98 12.2762C14.9276 11.9882 14.7758 11.7277 14.551 11.5402C14.3262 11.3527 14.0427 11.25 13.75 11.25ZM10 8.75C9.66848 8.75 9.35054 8.8817 9.11612 9.11612C8.8817 9.35054 8.75 9.66848 8.75 10C8.75 10.3315 8.8817 10.6495 9.11612 10.8839C9.35054 11.1183 9.66848 11.25 10 11.25C10.3315 11.25 10.6495 11.1183 10.8839 10.8839C11.1183 10.6495 11.25 10.3315 11.25 10C11.25 9.66848 11.1183 9.35054 10.8839 9.11612C10.6495 8.8817 10.3315 8.75 10 8.75Z" fill="white"/>
</g>
<defs>
<clipPath id="clip0_29_600">
<rect width="30" height="30" fill="white"/>
</clipPath>
</defs>
</svg>
