<svg width="38" height="38" viewBox="0 0 38 38" fill="none" xmlns="http://www.w3.org/2000/svg">
<g clip-path="url(#clip0_202_6)">
<path d="M19 38C29.4934 38 38 29.4934 38 19C38 8.50659 29.4934 0 19 0C8.50659 0 0 8.50659 0 19C0 29.4934 8.50659 38 19 38Z" fill="black"/>
<path d="M31.5629 33.2542L14.5964 11.4H11.4V26.5938H13.9573V14.6475L29.5551 34.8006C30.258 34.3304 30.9288 33.8138 31.5629 33.2542Z" fill="url(#paint0_linear_202_6)"/>
<path d="M24.2778 11.4H26.8111V26.6H24.2778V11.4Z" fill="url(#paint1_linear_202_6)"/>
</g>
<defs>
<linearGradient id="paint0_linear_202_6" x1="23.0111" y1="24.5944" x2="30.5055" y2="33.8833" gradientUnits="userSpaceOnUse">
<stop stop-color="white"/>
<stop offset="1" stop-color="white" stop-opacity="0"/>
</linearGradient>
<linearGradient id="paint1_linear_202_6" x1="25.5444" y1="11.4" x2="25.502" y2="22.5625" gradientUnits="userSpaceOnUse">
<stop stop-color="white"/>
<stop offset="1" stop-color="white" stop-opacity="0"/>
</linearGradient>
<clipPath id="clip0_202_6">
<rect width="38" height="38" fill="white"/>
</clipPath>
</defs>
</svg>
