<svg width="250" height="460" viewBox="0 0 250 460" fill="none" xmlns="http://www.w3.org/2000/svg">
<g filter="url(#filter0_d_351_51)">
<rect x="5" y="5" width="240" height="450" rx="18" fill="#232323" fill-opacity="0.1" shape-rendering="crispEdges"/>
<rect x="5.25" y="5.25" width="239.5" height="449.5" rx="17.75" stroke="#707070" stroke-width="0.5" shape-rendering="crispEdges"/>
</g>
<rect x="31" y="75" width="59" height="57" rx="9" fill="#3A3A3A"/>
<rect x="100" y="75" width="99" height="11" rx="5" fill="#3A3A3A"/>
<rect x="100" y="94" width="61" height="7" rx="3.5" fill="#3A3A3A"/>
<rect x="100" y="109" width="46" height="7" rx="3.5" fill="#3A3A3A"/>
<rect x="31" y="141" width="59" height="57" rx="9" fill="#3A3A3A"/>
<rect x="100" y="141" width="99" height="11" rx="5" fill="#3A3A3A"/>
<rect x="100" y="160" width="61" height="7" rx="3.5" fill="#3A3A3A"/>
<rect x="100" y="175" width="46" height="7" rx="3.5" fill="#3A3A3A"/>
<rect x="31" y="207" width="59" height="57" rx="9" fill="#3A3A3A"/>
<rect x="100" y="207" width="99" height="11" rx="5" fill="#3A3A3A"/>
<rect x="100" y="226" width="61" height="7" rx="3.5" fill="#3A3A3A"/>
<rect x="100" y="241" width="46" height="7" rx="3.5" fill="#3A3A3A"/>
<rect x="31" y="273" width="59" height="57" rx="9" fill="#3A3A3A"/>
<rect x="100" y="273" width="99" height="11" rx="5" fill="#3A3A3A"/>
<rect x="100" y="292" width="61" height="7" rx="3.5" fill="#3A3A3A"/>
<rect x="100" y="307" width="46" height="7" rx="3.5" fill="#3A3A3A"/>
<rect x="31" y="339" width="59" height="57" rx="9" fill="#3A3A3A"/>
<rect x="100" y="339" width="99" height="11" rx="5" fill="#3A3A3A"/>
<rect x="100" y="358" width="61" height="7" rx="3.5" fill="#3A3A3A"/>
<rect x="100" y="373" width="46" height="7" rx="3.5" fill="#3A3A3A"/>
<rect x="31" y="26" width="126" height="19" rx="5" fill="#3A3A3A"/>
<circle cx="213" cy="36" r="10" fill="#3A3A3A"/>
<defs>
<filter id="filter0_d_351_51" x="0" y="0" width="250" height="460" filterUnits="userSpaceOnUse" color-interpolation-filters="sRGB">
<feFlood flood-opacity="0" result="BackgroundImageFix"/>
<feColorMatrix in="SourceAlpha" type="matrix" values="0 0 0 0 0 0 0 0 0 0 0 0 0 0 0 0 0 0 127 0" result="hardAlpha"/>
<feOffset/>
<feGaussianBlur stdDeviation="2.5"/>
<feComposite in2="hardAlpha" operator="out"/>
<feColorMatrix type="matrix" values="0 0 0 0 0.0466667 0 0 0 0 0.0466667 0 0 0 0 0.0466667 0 0 0 0.25 0"/>
<feBlend mode="normal" in2="BackgroundImageFix" result="effect1_dropShadow_351_51"/>
<feBlend mode="normal" in="SourceGraphic" in2="effect1_dropShadow_351_51" result="shape"/>
</filter>
</defs>
</svg>
