<svg width="250" height="460" viewBox="0 0 250 460" fill="none" xmlns="http://www.w3.org/2000/svg">
<g filter="url(#filter0_d_352_57)">
<rect x="5" y="5" width="240" height="450" rx="18" fill="#232323" fill-opacity="0.1" shape-rendering="crispEdges"/>
<rect x="5.25" y="5.25" width="239.5" height="449.5" rx="17.75" stroke="#707070" stroke-width="0.5" shape-rendering="crispEdges"/>
</g>
<rect x="25" y="65" width="107" height="103" rx="9" fill="#3A3A3A"/>
<path d="M142 74C142 69.0294 146.029 65 151 65H244V168H151C146.029 168 142 163.971 142 159V74Z" fill="#3A3A3A"/>
<rect x="25" y="192" width="189" height="11" rx="5" fill="#3A3A3A"/>
<rect x="25" y="215" width="126" height="7" rx="3.5" fill="#3A3A3A"/>
<rect x="25" y="237" width="189" height="7" rx="3.5" fill="#3A3A3A"/>
<rect x="25" y="289" width="189" height="7" rx="3.5" fill="#3A3A3A"/>
<rect x="25" y="250" width="179" height="7" rx="3.5" fill="#3A3A3A"/>
<rect x="25" y="302" width="179" height="7" rx="3.5" fill="#3A3A3A"/>
<rect x="25" y="263" width="163" height="7" rx="3.5" fill="#3A3A3A"/>
<rect x="25" y="315" width="163" height="7" rx="3.5" fill="#3A3A3A"/>
<rect x="25" y="276" width="140" height="7" rx="3.5" fill="#3A3A3A"/>
<rect x="25" y="328" width="140" height="7" rx="3.5" fill="#3A3A3A"/>
<rect x="31" y="26" width="126" height="19" rx="5" fill="#3A3A3A"/>
<circle cx="213" cy="36" r="10" fill="#3A3A3A"/>
<defs>
<filter id="filter0_d_352_57" x="0" y="0" width="250" height="460" filterUnits="userSpaceOnUse" color-interpolation-filters="sRGB">
<feFlood flood-opacity="0" result="BackgroundImageFix"/>
<feColorMatrix in="SourceAlpha" type="matrix" values="0 0 0 0 0 0 0 0 0 0 0 0 0 0 0 0 0 0 127 0" result="hardAlpha"/>
<feOffset/>
<feGaussianBlur stdDeviation="2.5"/>
<feComposite in2="hardAlpha" operator="out"/>
<feColorMatrix type="matrix" values="0 0 0 0 0.0466667 0 0 0 0 0.0466667 0 0 0 0 0.0466667 0 0 0 0.25 0"/>
<feBlend mode="normal" in2="BackgroundImageFix" result="effect1_dropShadow_352_57"/>
<feBlend mode="normal" in="SourceGraphic" in2="effect1_dropShadow_352_57" result="shape"/>
</filter>
</defs>
</svg>
